<svg width="20" height="20" viewBox="0 0 20 20" fill="none" xmlns="http://www.w3.org/2000/svg">
<path d="M8.14377 4.62759C8.93037 2.6666 9.32368 1.6861 10 1.6861C10.6763 1.6861 11.0696 2.6666 11.8562 4.6276L11.8929 4.71891C12.3373 5.82678 12.5595 6.38071 13.0123 6.7174C13.4652 7.05409 14.0596 7.10733 15.2485 7.2138L15.4635 7.23305C17.4093 7.40732 18.3822 7.49445 18.5904 8.11343C18.7985 8.73242 18.076 9.38976 16.631 10.7044L16.1487 11.1432C15.4172 11.8087 15.0514 12.1415 14.881 12.5776C14.8492 12.659 14.8227 12.7423 14.8018 12.8271C14.6898 13.2818 14.7969 13.7645 15.0111 14.73L15.0778 15.0305C15.4714 16.8049 15.6683 17.692 15.3246 18.0747C15.1962 18.2177 15.0293 18.3206 14.8438 18.3712C14.3476 18.5066 13.6432 17.9326 12.2342 16.7845C11.309 16.0306 10.8464 15.6537 10.3153 15.5689C10.1064 15.5355 9.89356 15.5355 9.68466 15.5689C9.15355 15.6537 8.69097 16.0306 7.7658 16.7845C6.35684 17.9326 5.65237 18.5066 5.15617 18.3712C4.97075 18.3206 4.80384 18.2177 4.67542 18.0747C4.33174 17.692 4.52857 16.8049 4.92225 15.0305L4.98892 14.73C5.20313 13.7645 5.31024 13.2818 5.19818 12.8271C5.17728 12.7423 5.15084 12.659 5.11904 12.5776C4.94857 12.1415 4.58282 11.8087 3.85131 11.1432L3.36903 10.7044C1.92398 9.38976 1.20146 8.73242 1.40964 8.11343C1.61782 7.49445 2.59073 7.40732 4.53654 7.23305L4.75148 7.2138C5.94039 7.10733 6.53485 7.05409 6.9877 6.7174C7.44055 6.38071 7.66275 5.82678 8.10714 4.71891L8.14377 4.62759Z" fill="#CCD2E3" stroke="#CCD2E3" stroke-width="1.4"/>
</svg>
